<?xml version="1.0" encoding="UTF-8" standalone="no"?>
<svg
   xmlns:dc="http://purl.org/dc/elements/1.1/"
   xmlns:cc="http://creativecommons.org/ns#"
   xmlns:rdf="http://www.w3.org/1999/02/22-rdf-syntax-ns#"
   xmlns:svg="http://www.w3.org/2000/svg"
   xmlns="http://www.w3.org/2000/svg"
   viewBox="0 0 133.56 18.959999"
   height="18.959999"
   width="133.56"
   xml:space="preserve"
   id="svg2"
   version="1.1"><metadata
     id="metadata8"><rdf:RDF><cc:Work
         rdf:about=""><dc:format>image/svg+xml</dc:format><dc:type
           rdf:resource="http://purl.org/dc/dcmitype/StillImage" /></cc:Work></rdf:RDF></metadata><defs
     id="defs6" /><g
     transform="matrix(1.3333333,0,0,-1.3333333,0,18.96)"
     id="g10"><g
       transform="scale(0.1)"
       id="g12"><path
         id="path14"
         style="fill:#ffffff;fill-opacity:1;fill-rule:nonzero;stroke:none"
         d="m 558.844,21.9141 -16.653,66.875 h -0.273 L 525.543,21.9141 H 503.66 l -26.008,98.2739 h 21.59 l 15.567,-66.895 h 0.265 l 17.071,66.895 h 20.242 l 16.789,-67.7271 h 0.262 l 16.105,67.7271 h 21.199 L 580.316,21.9141 h -21.472" /><path
         id="path16"
         style="fill:#ffffff;fill-opacity:1;fill-rule:nonzero;stroke:none"
         d="m 645.914,76.4063 c -2.336,2.5703 -5.898,3.8593 -10.656,3.8593 -3.133,0 -5.723,-0.5273 -7.793,-1.5937 -2.039,-1.043 -3.699,-2.3516 -4.949,-3.9141 -1.243,-1.5625 -2.121,-3.2031 -2.61,-4.9414 -0.508,-1.7578 -0.801,-3.3125 -0.898,-4.6875 h 31.797 c -0.938,4.9609 -2.559,8.7109 -4.891,11.2774 m -22.09,-37.4297 c 2.938,-2.8516 7.149,-4.2578 12.664,-4.2578 3.946,0 7.336,0.9765 10.188,2.9492 2.84,1.9804 4.59,4.0625 5.222,6.2578 h 17.219 c -2.754,-8.5235 -6.984,-14.6289 -12.668,-18.3086 -5.703,-3.6641 -12.586,-5.4883 -20.664,-5.4883 -5.566,0 -10.633,0.8867 -15.117,2.6758 -4.512,1.7851 -8.301,4.3437 -11.434,7.6367 -3.117,3.3086 -5.539,7.2461 -7.238,11.8359 -1.68,4.5899 -2.519,9.6368 -2.519,15.125 0,5.3321 0.859,10.293 2.609,14.875 1.738,4.5899 4.219,8.5625 7.43,11.9141 3.203,3.3477 7.031,5.9766 11.496,7.918 4.433,1.914 9.363,2.8828 14.773,2.8828 6.067,0 11.348,-1.1719 15.84,-3.5156 4.492,-2.3243 8.195,-5.4883 11.086,-9.4258 2.891,-3.9453 4.969,-8.4375 6.25,-13.4844 1.289,-5.0508 1.738,-10.3242 1.387,-15.8203 h -51.34 c 0.285,-6.3398 1.887,-10.918 4.816,-13.7695" /><path
         id="path18"
         style="fill:#ffffff;fill-opacity:1;fill-rule:nonzero;stroke:none"
         d="m 720.25,55.9297 c -1.242,-0.4219 -2.57,-0.7734 -3.984,-1.0469 -1.438,-0.2734 -2.93,-0.5078 -4.493,-0.6836 -1.543,-0.1758 -3.117,-0.4101 -4.679,-0.6836 -1.453,-0.2812 -2.899,-0.6523 -4.324,-1.1133 -1.426,-0.4492 -2.668,-1.0742 -3.723,-1.8437 -1.043,-0.7813 -1.902,-1.7773 -2.539,-2.9805 -0.653,-1.1797 -0.965,-2.6953 -0.965,-4.5312 0,-1.7383 0.312,-3.211 0.965,-4.4141 0.637,-1.1797 1.515,-2.1172 2.609,-2.8125 1.102,-0.6836 2.383,-1.1523 3.836,-1.4336 1.485,-0.2851 3,-0.4101 4.563,-0.4101 3.847,0 6.836,0.6328 8.945,1.914 2.109,1.2891 3.672,2.8203 4.687,4.6172 0.997,1.7891 1.61,3.5938 1.836,5.4297 0.243,1.8359 0.352,3.3008 0.352,4.3945 v 7.3164 c -0.84,-0.7421 -1.856,-1.3203 -3.086,-1.7187 m -38.613,27.5781 c 2.019,3.0352 4.59,5.457 7.715,7.293 3.113,1.8359 6.621,3.1445 10.527,3.9258 3.894,0.7812 7.82,1.1718 11.766,1.1718 3.585,0 7.199,-0.2539 10.851,-0.75 3.692,-0.5078 7.031,-1.5039 10.067,-2.9609 3.019,-1.4727 5.5,-3.5234 7.433,-6.1211 1.914,-2.6289 2.871,-6.0937 2.871,-10.3906 v -37.043 c 0,-3.2109 0.196,-6.2695 0.574,-9.1992 0.344,-2.9492 0.989,-5.1563 1.926,-6.6289 h -19.824 c -0.371,1.1133 -0.664,2.2344 -0.898,3.3789 -0.215,1.1523 -0.391,2.3242 -0.481,3.5234 -3.113,-3.2226 -6.797,-5.4687 -11.004,-6.7578 -4.219,-1.2773 -8.547,-1.914 -12.941,-1.914 -3.399,0 -6.563,0.4023 -9.5,1.2421 -2.942,0.8204 -5.508,2.1094 -7.707,3.8555 -2.196,1.7305 -3.926,3.9258 -5.157,6.6016 -1.238,2.6562 -1.855,5.8203 -1.855,9.4922 0,4.0351 0.703,7.3554 2.129,9.9804 1.426,2.6172 3.254,4.6993 5.508,6.25 2.246,1.5625 4.816,2.7266 7.707,3.5157 2.89,0.7812 5.801,1.3984 8.75,1.8554 2.918,0.461 5.82,0.8399 8.652,1.1133 2.852,0.2734 5.371,0.6836 7.567,1.2305 2.207,0.5469 3.945,1.3476 5.246,2.414 1.277,1.0547 1.863,2.586 1.777,4.6094 0,2.1094 -0.352,3.7774 -1.027,5.0195 -0.672,1.25 -1.61,2.1954 -2.754,2.8907 -1.141,0.6836 -2.469,1.1523 -3.992,1.3672 -1.524,0.2421 -3.137,0.3515 -4.883,0.3515 -3.848,0 -6.895,-0.8203 -9.082,-2.4804 -2.207,-1.6524 -3.496,-4.3946 -3.848,-8.254 h -19.551 c 0.281,4.5821 1.414,8.3907 3.438,11.418" /><path
         id="path20"
         style="fill:#ffffff;fill-opacity:1;fill-rule:nonzero;stroke:none"
         d="M 794.371,93.0586 V 79.9922 H 780.055 V 44.7461 c 0,-3.2891 0.554,-5.4961 1.66,-6.5898 1.094,-1.1055 3.289,-1.6524 6.59,-1.6524 1.105,0 2.16,0.0508 3.175,0.1484 1.004,0.0782 1.981,0.2149 2.891,0.3985 V 21.9141 c -1.66,-0.2813 -3.488,-0.4571 -5.508,-0.5469 -2.031,-0.0977 -3.996,-0.1445 -5.918,-0.1445 -3.027,0 -5.89,0.2031 -8.605,0.6132 -2.703,0.4297 -5.086,1.2227 -7.156,2.4141 -2.063,1.1914 -3.684,2.8984 -4.875,5.0859 -1.2,2.2188 -1.797,5.1094 -1.797,8.6836 v 41.9727 h -11.824 v 13.0664 h 11.824 v 21.3364 h 19.543 V 93.0586 h 14.316" /><path
         id="path22"
         style="fill:#ffffff;fill-opacity:1;fill-rule:nonzero;stroke:none"
         d="M 824.359,120.188 V 83.1563 h 0.403 c 2.48,4.1289 5.633,7.1289 9.492,9.0117 3.855,1.875 7.617,2.8125 11.289,2.8125 5.234,0 9.52,-0.7032 12.871,-2.1289 3.34,-1.4141 5.977,-3.3985 7.899,-5.9063 1.945,-2.5312 3.292,-5.6055 4.062,-9.2305 0.793,-3.621 1.164,-7.625 1.164,-12.039 V 21.9063 h -19.531 v 40.1835 c 0,5.879 -0.91,10.2657 -2.746,13.1563 -1.824,2.8789 -5.117,4.3242 -9.766,4.3242 -5.351,0 -9.187,-1.5703 -11.582,-4.7461 -2.371,-3.164 -3.555,-8.3672 -3.555,-15.6133 V 21.9063 h -18.621 v 98.2817 h 18.621" /><path
         id="path24"
         style="fill:#ffffff;fill-opacity:1;fill-rule:nonzero;stroke:none"
         d="m 924.633,76.4063 c -2.332,2.5703 -5.887,3.8593 -10.672,3.8593 -3.106,0 -5.703,-0.5273 -7.766,-1.5937 -2.058,-1.043 -3.718,-2.3516 -4.961,-3.9141 -1.23,-1.5625 -2.109,-3.2031 -2.605,-4.9414 -0.508,-1.7578 -0.82,-3.3125 -0.899,-4.6875 h 31.797 c -0.929,4.9609 -2.55,8.7109 -4.894,11.2774 M 902.555,38.9766 c 2.929,-2.8516 7.148,-4.2578 12.656,-4.2578 3.945,0 7.332,0.9765 10.176,2.9492 2.851,1.9804 4.59,4.0625 5.234,6.2578 h 17.207 c -2.765,-8.5235 -6.973,-14.6289 -12.668,-18.3086 -5.683,-3.6641 -12.566,-5.4883 -20.652,-5.4883 -5.586,0 -10.645,0.8867 -15.117,2.6758 -4.512,1.7851 -8.321,4.3437 -11.426,7.6367 -3.117,3.3086 -5.527,7.2461 -7.227,11.8359 -1.711,4.5899 -2.57,9.6368 -2.57,15.125 0,5.3321 0.891,10.293 2.629,14.875 1.738,4.5899 4.238,8.5625 7.441,11.9141 3.211,3.3477 7.02,5.9766 11.485,7.918 4.453,1.914 9.394,2.8828 14.785,2.8828 6.074,0 11.336,-1.1719 15.84,-3.5156 4.5,-2.3243 8.183,-5.4883 11.074,-9.4258 2.891,-3.9453 4.98,-8.4375 6.258,-13.4844 1.289,-5.0508 1.758,-10.3242 1.379,-15.8203 H 897.73 c 0.274,-6.3398 1.864,-10.918 4.825,-13.7695" /><path
         id="path26"
         style="fill:#ffffff;fill-opacity:1;fill-rule:nonzero;stroke:none"
         d="M 974.398,93.0586 V 79.8555 h 0.266 c 0.918,2.1953 2.156,4.2383 3.738,6.1211 1.536,1.875 3.34,3.4882 5.371,4.8164 2.004,1.3281 4.172,2.3515 6.457,3.0937 2.293,0.7344 4.676,1.1055 7.157,1.1055 1.281,0 2.703,-0.2461 4.273,-0.6953 V 76.1445 c -0.92,0.1758 -2.027,0.3399 -3.305,0.4766 -1.3,0.1289 -2.511,0.1953 -3.722,0.1953 -3.563,0 -6.61,-0.5937 -9.082,-1.7851 -2.481,-1.1915 -4.473,-2.8243 -5.996,-4.8829 -1.512,-2.0625 -2.578,-4.4648 -3.231,-7.2265 -0.644,-2.7656 -0.957,-5.7422 -0.957,-8.9453 V 21.9141 h -19.551 v 71.1445 h 18.582" /><path
         id="path28"
         style="fill:#ffffff;fill-opacity:1;fill-rule:nonzero;stroke:none"
         d="m 293.277,81.2109 c -3.14,0 -5.754,-0.7226 -7.843,-2.1367 -2.137,-1.4258 -3.856,-3.2539 -5.168,-5.5195 -1.371,-2.2461 -2.282,-4.7149 -2.848,-7.4414 -0.555,-2.7031 -0.813,-5.3906 -0.813,-8.0547 0,-2.5781 0.258,-5.1875 0.813,-7.8633 0.566,-2.6562 1.461,-5.0664 2.699,-7.2344 1.238,-2.1601 2.918,-3.9179 5.028,-5.3046 2.121,-1.3868 4.668,-2.0704 7.742,-2.0704 4.668,0 8.25,1.3086 10.781,3.9454 2.539,2.6093 4.109,6.1328 4.777,10.5273 h 18.868 c -1.297,-9.4531 -4.977,-16.668 -11.02,-21.6406 -6.078,-4.961 -13.828,-7.4414 -23.297,-7.4414 -5.332,0 -10.207,0.9101 -14.672,2.6875 -4.457,1.7968 -8.226,4.2968 -11.355,7.5195 -3.141,3.2227 -5.59,7.0508 -7.317,11.4922 -1.746,4.4648 -2.636,9.3672 -2.636,14.6875 0,5.5195 0.812,10.6367 2.41,15.3828 1.597,4.7148 4.004,8.8281 7.113,12.2539 3.129,3.4375 6.938,6.1328 11.445,8.0664 4.481,1.9258 9.633,2.8828 15.454,2.8828 4.207,0 8.265,-0.539 12.16,-1.6523 3.898,-1.0938 7.429,-2.7617 10.488,-5.0274 3.07,-2.2578 5.578,-5.0507 7.488,-8.4101 1.961,-3.3477 3.063,-7.3125 3.328,-11.9141 h -19.148 c -1.289,8.1641 -6.117,12.2656 -14.477,12.2656" /><path
         id="path30"
         style="fill:#ffffff;fill-opacity:1;fill-rule:nonzero;stroke:none"
         d="m 370.68,81.2109 c -3.129,0 -5.754,-0.7226 -7.844,-2.1367 -2.137,-1.4258 -3.856,-3.2539 -5.164,-5.5195 -1.356,-2.2461 -2.274,-4.7149 -2.832,-7.4414 -0.57,-2.7031 -0.832,-5.3906 -0.832,-8.0547 0,-2.5781 0.262,-5.1875 0.832,-7.8633 0.558,-2.6562 1.449,-5.0664 2.687,-7.2344 1.235,-2.1601 2.934,-3.9179 5.024,-5.3046 2.117,-1.3868 4.679,-2.0704 7.726,-2.0704 4.696,0 8.274,1.3086 10.801,3.9454 2.531,2.6093 4.113,6.1328 4.781,10.5273 h 18.86 c -1.289,-9.4531 -4.957,-16.668 -11.008,-21.6406 -6.082,-4.961 -13.832,-7.4414 -23.281,-7.4414 -5.364,0 -10.231,0.9101 -14.692,2.6875 -4.437,1.7968 -8.226,4.2968 -11.379,7.5195 -3.129,3.2227 -5.558,7.0508 -7.289,11.4922 -1.761,4.4648 -2.621,9.3672 -2.621,14.6875 0,5.5195 0.801,10.6367 2.403,15.3828 1.593,4.7148 3.976,8.8281 7.109,12.2539 3.109,3.4375 6.93,6.1328 11.437,8.0664 4.481,1.9258 9.641,2.8828 15.442,2.8828 4.211,0 8.281,-0.539 12.18,-1.6523 3.898,-1.0938 7.402,-2.7617 10.472,-5.0274 3.067,-2.2578 5.574,-5.0507 7.508,-8.4101 1.949,-3.3477 3.039,-7.3125 3.332,-11.9141 h -19.16 c -1.317,8.1641 -6.133,12.2656 -14.492,12.2656" /><path
         id="path32"
         style="fill:#ffffff;fill-opacity:1;fill-rule:nonzero;stroke:none"
         d="m 196.957,59.8945 13.254,36.0547 13.008,-36.0547 z m 24.422,60.2815 h -22.16 L 162.055,21.9141 h 20.925 l 8.09,21.9726 h 37.918 l 7.922,-21.9726 h 21.211 l -36.742,98.2619" /><path
         id="path34"
         style="fill:#ffffff;fill-opacity:1;fill-rule:nonzero;stroke:none"
         d="M 457.008,94.0234 V 56.6797 c 0,-7.2539 -1.117,-12.4688 -3.399,-15.6445 -2.281,-3.1641 -5.98,-4.7657 -11.058,-4.7657 -4.485,0 -7.606,1.4571 -9.363,4.3477 -1.77,2.8984 -2.641,7.2851 -2.641,13.1719 V 94.0234 H 411.855 V 50.1953 c 0,-4.4023 0.379,-8.4258 1.133,-12.0508 0.739,-3.6211 2.035,-6.707 3.867,-9.2382 1.84,-2.5274 4.372,-4.4727 7.575,-5.8477 3.215,-1.3867 7.308,-2.082 12.328,-2.082 3.941,0 7.789,0.9179 11.586,2.7656 3.531,1.7266 6.429,4.5312 8.769,8.3008 v -9.2696 h 18.606 v 71.25 h -18.711" /><path
         id="path36"
         style="fill:#ffffff;fill-opacity:1;fill-rule:nonzero;stroke:none"
         d="m 71.0586,21.7695 c -27.168,0 -49.2773,22.0977 -49.2773,49.2774 0,27.1562 22.1093,49.2661 49.2773,49.2661 27.168,0 49.2734,-22.1099 49.2734,-49.2661 0,-27.1797 -22.1054,-49.2774 -49.2734,-49.2774 m 71.1214,49.5196 -16.2,14.6797 6.579,20.8472 -21.348,4.61 -4.742,21.34 -20.8088,-6.692 -14.7539,16.114 -14.6758,-16.2 L 35.3828,132.57 30.7617,111.211 9.42969,106.484 16.1094,85.6641 0,70.9102 16.2031,56.2305 9.61719,35.3906 30.9922,30.7813 35.707,9.44531 56.5273,16.125 71.2813,0 85.9609,16.2031 106.813,9.60938 l 4.609,21.36722 21.328,4.7461 -6.699,20.8125 16.129,14.7539" /><path
         id="path38"
         style="fill:#ffffff;fill-opacity:1;fill-rule:nonzero;stroke:none"
         d="m 71.0977,110.578 c -21.8125,0 -39.4766,-17.6757 -39.4766,-39.4842 0,-21.7969 17.6641,-39.4805 39.4766,-39.4805 21.8046,0 39.4723,17.6836 39.4723,39.4805 0,21.8085 -17.6677,39.4842 -39.4723,39.4842" /></g></g></svg>