<?xml version="1.0" encoding="iso-8859-1"?>
<!-- Generator: Adobe Illustrator 19.0.0, SVG Export Plug-In . SVG Version: 6.00 Build 0)  -->
<svg version="1.1" id="Layer_1" xmlns="http://www.w3.org/2000/svg" xmlns:xlink="http://www.w3.org/1999/xlink" x="0px" y="0px"
	 viewBox="0 0 460 460" style="enable-background:new 0 0 460 460;" xml:space="preserve">
<g id="XMLID_459_">
	<path id="XMLID_1388_" style="fill:#D7D5C8;" d="M447.023,138.718L447.023,138.718l1.328,4.958l0,0
		c2.446,9.127-1.776,18.728-10.155,23.095l-16.759,8.735c-20.676,10.777-42.47,19.258-64.991,25.293l-114.575,30.7
		c-66.788,17.896-137.579,13.647-201.748-12.11l0,0c-4.773-2.756-8.256-7.295-9.683-12.619c-1.815-6.773,2.205-13.735,8.977-15.549
		l9.117-2.443l-39.276-63.6c-5.388-8.724-0.843-20.176,9.062-22.829l0,0c4.192-1.123,8.663-0.414,12.302,1.95l97.288,63.211
		l183.062-49.051c16.447-4.407,33.537-5.905,50.5-4.426l62.633,5.461C435.027,120.446,444.186,128.129,447.023,138.718z"/>
	<path id="XMLID_1387_" style="fill:#5C676B;" d="M435.073,123.015l-32.062,8.591c-12.398,3.322-25.142-4.036-28.465-16.434l0,0
		l49.559,4.321C428.068,119.839,431.792,121.08,435.073,123.015z"/>
	<path id="XMLID_1385_" style="fill:#D4632E;" d="M30.622,104.298l97.288,63.211l-79.374,21.268L9.258,125.178
		c-5.388-8.724-0.843-20.176,9.062-22.83l0,0C22.512,101.225,26.983,101.934,30.622,104.298z"/>
	<path id="XMLID_1384_" style="fill:#BC3C28;" d="M77.392,152.688c-20.608,5.522-41.537,1.027-57.626-10.496L9.258,125.178
		c-5.388-8.724-0.843-20.176,9.062-22.829l0,0c4.192-1.123,8.663-0.414,12.302,1.95l63.635,41.345
		C89.09,148.663,83.451,151.064,77.392,152.688z"/>
	<path id="XMLID_1383_" style="fill:#BEBCB2;" d="M447.023,138.718l1.328,4.958l0,0c2.446,9.127-1.776,18.728-10.155,23.095
		l-16.758,8.734c-20.676,10.777-42.47,19.258-64.992,25.293l-114.575,30.7c-50.158,13.44-102.574,14.388-152.746,3.118
		l146.233-39.183l-84.05-127.3c-5.609-8.496-1.247-19.99,8.586-22.625l0,0c4.115-1.103,8.505-0.393,12.063,1.95l178.052,117.254
		l90.681-24.298l5.679-1.522L447.023,138.718z"/>
	<path id="XMLID_1381_" style="fill:#ADABA3;" d="M159.84,72.713l154.298,101.611l2.363,8.819l-78.778,21.109l-2.363-8.819
		L155.883,75.061C155.683,73.141,157.933,71.458,159.84,72.713z"/>
	<path id="XMLID_1380_" style="fill:#D4632E;" d="M109.771,238.537c-6.916-1.082-13.802-2.383-20.645-3.921l146.233-39.183
		l114.651-30.721l90.681-24.298l1.7-0.455l3.979-1.066l0.653-0.175l1.328,4.958l0,0c0.353,1.319,0.552,2.647,0.634,3.969
		L109.771,238.537z"/>
	<path id="XMLID_1215_" style="fill:#BEBCB2;" d="M460,405L460,405c0,5.523-4.477,10-10,10H10c-5.523,0-10-4.477-10-10l0,0
		c0-5.523,4.477-10,10-10h440C455.523,395,460,399.477,460,405z"/>
</g>
<g>
</g>
<g>
</g>
<g>
</g>
<g>
</g>
<g>
</g>
<g>
</g>
<g>
</g>
<g>
</g>
<g>
</g>
<g>
</g>
<g>
</g>
<g>
</g>
<g>
</g>
<g>
</g>
<g>
</g>
</svg>
