<?xml version="1.0" encoding="iso-8859-1"?>
<!-- Generator: Adobe Illustrator 19.0.0, SVG Export Plug-In . SVG Version: 6.00 Build 0)  -->
<svg version="1.1" id="Capa_1" xmlns="http://www.w3.org/2000/svg" xmlns:xlink="http://www.w3.org/1999/xlink" x="0px" y="0px"
	 viewBox="0 0 512 512" style="enable-background:new 0 0 512 512;" xml:space="preserve">
<g>
	<path style="fill:#F2BB80;" d="M331.035,97.104c21.892,0.053,39.671-17.655,39.724-39.548c0-0.062,0-0.115,0-0.177V39.724
		C370.759,17.788,352.971,0,331.035,0s-39.724,17.788-39.724,39.724V57.38c-0.053,21.892,17.655,39.671,39.548,39.724
		C330.92,97.104,330.973,97.104,331.035,97.104z"/>
	<path style="fill:#F2BB80;" d="M317.794,370.759L304.552,476.69h48.552l22.334-119.261c2.631-13.462-2.772-27.233-13.859-35.31
		l-27.542-20.039l-36.017,54.113L317.794,370.759z"/>
</g>
<g>
	<path style="fill:#4398D1;" d="M0,344.276v68.502c-0.053,5.994,4.776,10.893,10.77,10.946c0.062,0,0.115,0,0.177,0l0,0
		c4.114,0,7.874-2.322,9.71-6.003l14.654-29.308v-44.138H0z"/>
	<path style="fill:#4398D1;" d="M300.138,512h67.972c6.338,0,11.476-5.138,11.476-11.476l0,0c0.009-3.858-1.916-7.468-5.12-9.622
		l-21.363-14.212h-48.552L300.138,512z"/>
</g>
<path style="fill:#F2BB80;" d="M121.998,113.346L52.966,220.69l26.483,17.655l79.448-88.276h44.138V97.104h-51.377
	C139.653,97.121,128.477,103.239,121.998,113.346z"/>
<path style="fill:#4398D1;" d="M263.151,100.458c-4.696-2.207-9.816-3.354-15.007-3.354h-45.109v52.966h26.483l-42.284,71.503
	l95.25,43.255l44.138-70.621l28.778,13.065l25.688-51.288L263.151,100.458z"/>
<path style="fill:#F2BB80;" d="M512,105.931l-26.483-17.655l-79.448,79.448l-24.982-11.741l-25.688,51.288l40.96,18.626
	c15.793,7.256,34.516,1.933,44.138-12.535L512,105.931z"/>
<polygon style="fill:#666666;" points="126.853,323.796 186.616,353.722 220.69,300.138 298.02,356.37 334.036,302.257 
	282.483,264.828 187.234,221.573 "/>
<path style="fill:#F2BB80;" d="M114.759,344.276H35.311v44.138l102.577,7.327c12.915,0.945,25.318-5.252,32.309-16.154
	l16.419-25.777l-59.763-29.926L114.759,344.276z"/>
<path style="fill:#E8A864;" d="M348.778,4.326c2.781,5.473,4.264,11.52,4.326,17.655v17.655
	c0.115,21.795-17.47,39.548-39.256,39.662c-6.329,0.035-12.579-1.457-18.211-4.352c9.754,19.597,33.545,27.586,53.142,17.832
	c13.436-6.682,21.945-20.392,21.981-35.399V39.724C370.724,24.717,362.214,11.008,348.778,4.326z"/>
<path style="fill:#3E8CC7;" d="M233.225,242.494l49.258,22.334l44.138-70.621l28.778,13.065l25.688-51.288l-41.578-19.597
	C309.752,177.011,273.894,212.798,233.225,242.494z"/>
<path style="fill:#595959;" d="M148.569,287.073l-21.716,36.723l59.763,29.926l34.074-53.583l77.33,56.232l36.017-54.113
	l-51.553-37.429l-49.258-22.334C207.263,261.288,178.759,276.295,148.569,287.073z"/>
<g>
</g>
<g>
</g>
<g>
</g>
<g>
</g>
<g>
</g>
<g>
</g>
<g>
</g>
<g>
</g>
<g>
</g>
<g>
</g>
<g>
</g>
<g>
</g>
<g>
</g>
<g>
</g>
<g>
</g>
</svg>
