<?xml version="1.0" encoding="iso-8859-1"?>
<!-- Generator: Adobe Illustrator 19.0.0, SVG Export Plug-In . SVG Version: 6.00 Build 0)  -->
<svg version="1.1" id="Capa_1" xmlns="http://www.w3.org/2000/svg" xmlns:xlink="http://www.w3.org/1999/xlink" x="0px" y="0px"
	 viewBox="0 0 512 512" style="enable-background:new 0 0 512 512;" xml:space="preserve">
<path style="fill:#0073AA;" d="M207.3,262.257h-72.745l20.455-101.101c3.238-16.006-7.112-31.607-23.118-34.846l-51.628-10.446
	c-16.02-3.241-31.644,7.143-34.857,23.173L24.914,241.324c-3.372,16.828,0.981,34.282,11.86,47.556
	c18.617,22.716,45.188,20.866,45.664,20.971l0,0h101.065v107.883c0,13.143,10.655,23.798,23.798,23.798
	c13.143,0,23.798-10.655,23.798-23.798V286.055C231.099,272.912,220.444,262.257,207.3,262.257z"/>
<path style="fill:#A03C19;" d="M106.277,496.796c-13.143,0-23.797-10.655-23.797-23.797V333.65
	c0-13.143,10.655-23.797,23.797-23.797s23.797,10.655,23.797,23.797v139.349C130.075,486.141,119.421,496.796,106.277,496.796z"/>
<path style="fill:#C8E6EB;" d="M470.593,358.618c-8.762,0-15.865-7.103-15.865-15.865V116.322c0-8.762,7.103-15.865,15.865-15.865
	s15.865,7.103,15.865,15.865v226.431C486.458,351.515,479.355,358.618,470.593,358.618z"/>
<path style="fill:#A56941;" d="M183.107,244.319c-3.564-8.005,0.036-17.383,8.041-20.947L474.156,97.37
	c8.004-3.565,17.383,0.036,20.947,8.041c3.564,8.005-0.036,17.383-8.041,20.947L204.052,252.36
	C196.099,255.901,186.692,252.375,183.107,244.319z"/>
<path style="fill:#64AFFF;" d="M36.774,288.881c-10.879-13.274-15.231-30.728-11.86-47.557l20.494-102.288
	c3.211-16.025,18.833-26.415,34.857-23.173l51.628,10.446c16.006,3.238,26.356,18.84,23.118,34.846l-20.455,101.101L36.774,288.881z
	"/>
<circle style="fill:#FFB69E;" cx="124.262" cy="58.976" r="43.772"/>
<path style="fill:#CD5014;" d="M139.692,357.447H23.798C10.655,357.447,0,346.792,0,333.65s10.655-23.797,23.798-23.797h115.894
	c13.143,0,23.798,10.655,23.798,23.797S152.835,357.447,139.692,357.447z"/>
<path style="fill:#73C8F0;" d="M481.857,368.553H344.846c-8.762,0-15.865-7.103-15.865-15.865c0-8.762,7.103-15.865,15.865-15.865
	h137.012c8.762,0,15.865,7.103,15.865,15.865C497.722,361.45,490.619,368.553,481.857,368.553z"/>
<path style="fill:#41B4E6;" d="M399.615,418.66H286.444c-8.762,0-15.865-7.103-15.865-15.865s7.103-15.865,15.865-15.865h113.171
	c8.762,0,15.865,7.103,15.865,15.865C415.481,411.557,408.377,418.66,399.615,418.66z"/>
<path style="fill:#73C8F0;" d="M496.135,468.767h-113.17c-8.762,0-15.865-7.103-15.865-15.865s7.103-15.865,15.865-15.865h113.17
	c8.762,0,15.865,7.103,15.865,15.865S504.897,468.767,496.135,468.767z"/>
<path style="fill:#FFB69E;" d="M220.676,250.982l-79.093-4.668c-6.63-0.392-12.623-4.075-15.967-9.813l-45.459-78.02
	c-5.514-9.464-2.312-21.605,7.151-27.119c9.463-5.514,21.605-2.312,27.118,7.151l40.106,68.833l68.48,4.041
	c10.933,0.645,19.274,10.032,18.629,20.966C240.996,243.283,231.611,251.628,220.676,250.982z"/>
<path style="fill:#4699F2;" d="M135.607,174.864l-21.181-36.351c-5.514-9.464-17.657-12.665-27.118-7.151
	c-9.464,5.514-12.665,17.656-7.151,27.119l20.301,34.843L135.607,174.864z"/>
<g>
</g>
<g>
</g>
<g>
</g>
<g>
</g>
<g>
</g>
<g>
</g>
<g>
</g>
<g>
</g>
<g>
</g>
<g>
</g>
<g>
</g>
<g>
</g>
<g>
</g>
<g>
</g>
<g>
</g>
</svg>
