<?xml version="1.0" encoding="iso-8859-1"?>
<!-- Generator: Adobe Illustrator 19.0.0, SVG Export Plug-In . SVG Version: 6.00 Build 0)  -->
<svg version="1.1" id="Capa_1" xmlns="http://www.w3.org/2000/svg" xmlns:xlink="http://www.w3.org/1999/xlink" x="0px" y="0px"
	 viewBox="0 0 512 512" style="enable-background:new 0 0 512 512;" xml:space="preserve">
<path style="fill:#55696E;" d="M395.264,119.013l-54.151-20.676c-16.77-6.403-35.556,2.001-41.96,18.771l-59.218,155.091
	c-3.045,6.211-3.643,13.608-1.049,20.607l29.209,78.82l-29.734,99.029c-4.154,13.837,3.694,28.423,17.532,32.578
	c13.85,4.16,28.428-3.712,32.578-17.531l32.255-107.423c1.636-5.447,1.451-11.28-0.525-16.613l-25.041-67.572l22.773,8.695
	l29.24,78.742l-7.049,94.706c-1.073,14.408,9.738,26.957,24.146,28.029c14.415,1.075,26.958-9.749,28.029-24.145l7.474-100.401
	c0.28-3.752-0.254-7.521-1.564-11.048l-31.296-84.278l47.125-123.419C420.439,144.203,412.035,125.417,395.264,119.013z"/>
<path style="fill:#87AFB9;" d="M1.284,345.948c-3.621-8.925,0.679-19.096,9.604-22.717l331.94-134.671
	c8.923-3.621,19.095,0.678,22.717,9.604c3.621,8.925-0.679,19.096-9.604,22.717L24.001,355.552
	C15.019,359.197,4.882,354.816,1.284,345.948z"/>
<path style="fill:#FF8C46;" d="M33.087,352.493l-13.55-33.398c-3.621-8.925,0.679-19.096,9.604-22.717
	c8.926-3.62,19.096,0.678,22.717,9.604l13.55,33.398c3.621,8.925-0.679,19.096-9.604,22.717
	C46.822,365.742,36.685,361.361,33.087,352.493z"/>
<path style="fill:#41A0D7;" d="M266.157,234.439l-49.74-92.991c-7.128-13.327,1.167-29.731,16.15-31.864l92.518-13.173
	c11.914-1.701,22.958,6.59,24.655,18.509c1.697,11.92-6.59,22.958-18.509,24.655l-61.673,8.781l35.045,65.519
	c5.679,10.616,1.676,23.826-8.941,29.504C285.066,249.048,271.846,245.075,266.157,234.439z"/>
<path style="fill:#64AFFF;" d="M354.549,316.769l-114.882-43.865l59.487-155.796c6.403-16.77,25.189-25.175,41.96-18.771
	l54.151,20.676c16.77,6.403,25.175,25.189,18.771,41.96L354.549,316.769z"/>
<circle style="fill:#FFB69E;" cx="399.34" cy="50.467" r="48.12"/>
<path style="fill:#55879B;" d="M150.677,478.379c-5.997-7.536-4.75-18.508,2.787-24.506L483.7,191.074
	c7.537-5.997,18.509-4.749,24.506,2.787c5.997,7.536,4.75,18.508-2.787,24.506L175.182,481.166
	C167.597,487.202,156.635,485.866,150.677,478.379z"/>
<path style="fill:#FF8C46;" d="M183.032,475.661l-22.443-28.202c-5.997-7.536-4.75-18.508,2.787-24.506
	c7.537-5.997,18.508-4.749,24.506,2.787l22.443,28.202c5.997,7.536,4.75,18.508-2.787,24.506
	C199.953,484.484,188.991,483.148,183.032,475.661z"/>
<g>
	<path style="fill:#73C8F0;" d="M448.188,509.654H239.389c-9.632,0-17.44-7.808-17.44-17.44s7.808-17.44,17.44-17.44h208.799
		c4.233,0,7.676-3.443,7.676-7.676s-3.444-7.676-7.676-7.676h-9.763c-9.632,0-17.44-7.808-17.44-17.44s7.808-17.44,17.44-17.44
		h9.763c23.466,0,42.556,19.091,42.556,42.556S471.653,509.654,448.188,509.654z"/>
	<path style="fill:#73C8F0;" d="M449.701,278.732l-84.354-21.681c-7.071-1.818-12.761-7.052-15.162-13.948l-34.898-100.267
		c-3.958-11.371,2.052-23.796,13.423-27.754c11.368-3.964,23.796,2.052,27.754,13.423l31.056,89.229l73.033,18.772
		c11.661,2.997,18.684,14.879,15.687,26.54C473.248,274.691,461.372,281.733,449.701,278.732z"/>
</g>
<path style="fill:#FFB69E;" d="M460.555,236.505l-10.853,42.227c11.709,3.011,23.557-4.079,26.54-15.687
	C479.239,251.384,472.216,239.502,460.555,236.505z"/>
<g>
</g>
<g>
</g>
<g>
</g>
<g>
</g>
<g>
</g>
<g>
</g>
<g>
</g>
<g>
</g>
<g>
</g>
<g>
</g>
<g>
</g>
<g>
</g>
<g>
</g>
<g>
</g>
<g>
</g>
</svg>
