<?xml version="1.0" encoding="iso-8859-1"?>
<!-- Generator: Adobe Illustrator 19.0.0, SVG Export Plug-In . SVG Version: 6.00 Build 0)  -->
<svg version="1.1" id="Layer_1" xmlns="http://www.w3.org/2000/svg" xmlns:xlink="http://www.w3.org/1999/xlink" x="0px" y="0px"
	 viewBox="0 0 512 512" style="enable-background:new 0 0 512 512;" xml:space="preserve">
<g>
	<g>
		<path style="fill:#A89177;" d="M251.694,105.931c-4.882,0-8.828-3.955-8.828-8.828V8.828c0-4.873,3.946-8.828,8.828-8.828
			c4.882,0,8.828,3.955,8.828,8.828v88.276C260.521,101.976,256.576,105.931,251.694,105.931"/>
		<path style="fill:#A89177;" d="M207.547,203.03c-4.564,0-8.43-3.513-8.792-8.148c-0.044-0.53-4.564-53.645-35.337-53.645
			c-15.113,0-26.739-4.484-34.551-13.33c-11.697-13.25-9.613-31.144-9.516-31.903c0.6-4.829,4.988-8.289,9.852-7.662
			c4.82,0.609,8.245,4.988,7.671,9.807c-0.035,0.327-1.059,11.043,5.314,18.167c4.317,4.829,11.467,7.265,21.23,7.265
			c47.086,0,52.727,67.098,52.939,69.959c0.371,4.855-3.266,9.092-8.121,9.463C208.006,203.021,207.768,203.03,207.547,203.03"/>
		<path style="fill:#A89177;" d="M295.841,203.034c-0.221,0-0.45-0.009-0.671-0.026c-4.864-0.362-8.51-4.608-8.139-9.472
			c0.212-2.851,5.853-69.95,52.939-69.95c9.763,0,16.914-2.445,21.23-7.265c6.444-7.203,5.323-18.079,5.314-18.185
			c-0.538-4.82,2.922-9.198,7.742-9.763c4.714-0.618,9.181,2.816,9.781,7.636c0.097,0.75,2.18,18.644-9.516,31.903
			c-7.812,8.845-19.438,13.33-34.551,13.33c-30.905,0-35.293,53.098-35.337,53.636C304.28,199.512,300.413,203.034,295.841,203.034"
			/>
	</g>
	<g>
		<path style="fill:#ADA9A7;" d="M234.039,194.207c0,0-188.416,31.17-211.862,61.793c0,0-7.168,44.138,61.793,44.138
			C83.97,300.138,201.765,309.522,234.039,194.207"/>
		<path style="fill:#ADA9A7;" d="M277.961,194.207c0,0,188.416,31.17,211.862,61.793c0,0,7.168,44.138-61.793,44.138
			C428.03,300.138,310.235,309.522,277.961,194.207"/>
	</g>
	<g>
		<path style="fill:#A89177;" d="M181.064,512c-1.324,0-2.675-0.3-3.937-0.927c-4.361-2.189-6.135-7.486-3.955-11.847l33.589-67.178
			l-25.132-67.019c-1.095-2.913-0.565-6.188,1.377-8.616l35.31-44.138c3.054-3.796,8.589-4.423,12.412-1.377
			c3.805,3.046,4.423,8.598,1.377,12.412l-32.177,40.219l24.717,65.924c0.865,2.295,0.733,4.855-0.362,7.044l-35.31,70.621
			C187.42,510.217,184.304,512,181.064,512"/>
		<path style="fill:#A89177;" d="M145.763,379.591c-1.165,0-2.348-0.23-3.478-0.724c-4.476-1.916-6.559-7.106-4.634-11.591
			l26.483-61.793c0.547-1.28,1.386-2.401,2.454-3.302l52.957-44.138c3.769-3.125,9.322-2.604,12.447,1.13
			c3.116,3.752,2.604,9.313-1.13,12.438L179.52,314.39l-25.644,59.851C152.445,377.578,149.188,379.591,145.763,379.591"/>
		<path style="fill:#A89177;" d="M322.323,512c-3.24,0-6.356-1.783-7.91-4.882l-35.31-70.621c-1.095-2.189-1.227-4.749-0.362-7.044
			l24.717-65.924l-32.177-40.219c-3.046-3.814-2.428-9.366,1.377-12.412c3.822-3.054,9.366-2.428,12.412,1.377l35.31,44.138
			c1.942,2.428,2.472,5.703,1.377,8.616l-25.132,67.019l33.589,67.178c2.18,4.361,0.406,9.657-3.955,11.847
			C324.998,511.7,323.648,512,322.323,512"/>
		<path style="fill:#A89177;" d="M357.625,379.591c-3.425,0-6.682-2.013-8.113-5.349l-25.644-59.851l-51.341-42.778
			c-3.734-3.125-4.246-8.686-1.13-12.438c3.134-3.734,8.686-4.255,12.447-1.13l52.957,44.138c1.068,0.9,1.907,2.022,2.454,3.302
			l26.483,61.793c1.924,4.484-0.159,9.675-4.634,11.591C359.973,379.361,358.79,379.591,357.625,379.591"/>
	</g>
	<path style="fill:#D3A65F;" d="M287.004,220.69c0,34.127-15.81,61.793-35.31,61.793s-35.31-27.666-35.31-61.793
		s15.81-61.793,35.31-61.793S287.004,186.562,287.004,220.69"/>
	<g>
		<path style="fill:#DDB574;" d="M278.177,335.448c0,29.246-11.855,52.966-26.483,52.966s-26.483-23.72-26.483-52.966
			s11.855-52.966,26.483-52.966S278.177,306.202,278.177,335.448"/>
		<path style="fill:#DDB574;" d="M278.177,128c0,17.064-11.855,30.897-26.483,30.897S225.211,145.064,225.211,128
			s11.855-30.897,26.483-30.897S278.177,110.936,278.177,128"/>
	</g>
</g>
<g>
</g>
<g>
</g>
<g>
</g>
<g>
</g>
<g>
</g>
<g>
</g>
<g>
</g>
<g>
</g>
<g>
</g>
<g>
</g>
<g>
</g>
<g>
</g>
<g>
</g>
<g>
</g>
<g>
</g>
</svg>
