<?xml version="1.0" encoding="iso-8859-1"?>
<!-- Generator: Adobe Illustrator 19.0.0, SVG Export Plug-In . SVG Version: 6.00 Build 0)  -->
<svg version="1.1" id="Capa_1" xmlns="http://www.w3.org/2000/svg" xmlns:xlink="http://www.w3.org/1999/xlink" x="0px" y="0px"
	 viewBox="0 0 481.928 481.928" style="enable-background:new 0 0 481.928 481.928;" xml:space="preserve">
<path style="fill:#BB451D;" d="M216.014,388.964h48v88h-48V388.964z"/>
<path style="fill:#5B3726;" d="M240.014,52.964l-22.648,71.712c-16.537,52.366-17.31,108.438-2.224,161.24l24.872,87.048
	l23.752-99.744c10.667-44.812,10.117-91.563-1.6-136.112L240.014,52.964z"/>
<path style="fill:#744630;" d="M330.502,75.3l-40.888,63.104c-29.87,46.081-45.53,99.927-45.032,154.84l0.8,90.528l49.424-89.832
	c22.208-40.36,34.114-85.577,34.664-131.64L330.502,75.3z"/>
<path style="fill:#8F563B;" d="M425.214,113.58l-58.912,46.752c-43.018,34.132-75.049,80.162-92.104,132.36l-28.12,86.048
	l75.536-69.352c33.93-31.16,59.647-70.21,74.872-113.688L425.214,113.58z"/>
<path style="fill:#744630;" d="M147.262,75.3l40.904,63.104c29.873,46.08,45.536,99.927,45.04,154.84l-0.8,90.528l-49.448-89.832
	c-22.205-40.361-34.109-85.577-34.656-131.64L147.262,75.3z"/>
<path style="fill:#8F563B;" d="M52.542,113.58l58.912,46.752c43.019,34.133,75.052,80.162,92.112,132.36l28.12,86.048l-75.52-69.352
	c-33.927-31.161-59.641-70.211-74.864-113.688L52.542,113.58z"/>
<path style="fill:#FBB540;" d="M264.014,404.964h-48c-13.255,0-24-10.745-24-24v-40h96v40
	C288.014,394.219,277.269,404.964,264.014,404.964z"/>
<g>
	<path style="fill:#F9E0A0;" d="M366.598,428.964c-21.097,0.022-40.895-10.185-53.112-27.384c-2.424-3.694-1.393-8.654,2.301-11.077
		c3.513-2.305,8.211-1.499,10.755,1.845c9.225,12.954,24.153,20.637,40.056,20.616c24.206,0.092,44.789-17.645,48.272-41.6
		c0.482-3.581,3.305-6.394,6.888-6.864c26.236-3.046,45.035-26.784,41.989-53.021c-2.236-19.256-15.875-35.257-34.533-40.515
		c-4.242-1.246-6.67-5.694-5.424-9.936c1.246-4.242,5.694-6.67,9.936-5.424c33.879,9.667,53.507,44.968,43.84,78.847
		c-6.463,22.649-24.88,39.895-47.904,44.857C422.656,408.454,396.574,428.991,366.598,428.964z"/>
	<path style="fill:#F9E0A0;" d="M113.43,428.964c-29.976,0.027-56.058-20.51-63.064-49.656c-34.441-7.422-56.343-41.359-48.921-75.8
		c4.962-23.025,22.208-41.442,44.857-47.904c4.242-1.246,8.69,1.182,9.936,5.424c1.246,4.242-1.182,8.69-5.424,9.936
		c-25.413,7.197-40.18,33.633-32.982,59.046c5.27,18.609,21.23,32.211,40.438,34.466c3.583,0.47,6.406,3.283,6.888,6.864
		c3.472,23.964,24.058,41.715,48.272,41.624c15.903,0.021,30.831-7.662,40.056-20.616c2.675-3.516,7.694-4.198,11.211-1.523
		c3.344,2.544,4.15,7.242,1.845,10.755C154.324,418.779,134.527,428.986,113.43,428.964L113.43,428.964z"/>
	<path style="fill:#F9E0A0;" d="M19.142,140.964c-2.186-0.002-4.276-0.898-5.784-2.48c-8.612-9.03-13.394-21.042-13.344-33.52
		C-0.205,80.139,18.679,59.309,43.406,57.1c3.518-29.473,28.335-51.775,58.016-52.136c16.09-0.025,31.453,6.699,42.352,18.536
		c3.018,3.23,2.846,8.294-0.384,11.312c-3.23,3.018-8.294,2.846-11.312-0.384l0,0c-7.882-8.584-19.003-13.468-30.656-13.464
		c-23.896,0.425-42.944,20.103-42.592,44c0.004,2.331-0.954,4.559-2.648,6.16c-1.666,1.567-3.911,2.365-6.192,2.2l-1.496-0.192
		c-0.529-0.095-1.063-0.151-1.6-0.168c-17.348,0.346-31.152,14.651-30.88,32c-0.042,8.363,3.151,16.418,8.912,22.48
		c3.049,3.198,2.928,8.262-0.27,11.31C23.169,140.171,21.195,140.962,19.142,140.964z"/>
	<path style="fill:#F9E0A0;" d="M462.798,140.964c-4.418-0.004-7.997-3.588-7.994-8.006c0.002-2.053,0.793-4.027,2.21-5.514
		c5.76-6.062,8.954-14.117,8.912-22.48c0.276-17.363-13.55-31.676-30.912-32c-0.502,0.019-1.002,0.076-1.496,0.168l-1.6,0.2
		c-2.247,0.2-4.477-0.532-6.168-2.024c-1.68-1.516-2.639-3.673-2.64-5.936c0-0.192,0-0.616,0-0.8
		c0.179-23.763-18.832-43.227-42.592-43.608c-11.653-0.004-22.774,4.88-30.656,13.464c-3.018,3.23-8.082,3.402-11.312,0.384
		s-3.402-8.082-0.384-11.312c10.9-11.835,26.262-18.559,42.352-18.536c29.706,0.342,54.557,22.648,58.096,52.144
		c24.692,2.248,43.531,23.063,43.312,47.856c0.05,12.478-4.732,24.49-13.344,33.52C467.074,140.066,464.984,140.962,462.798,140.964
		L462.798,140.964z"/>
</g>
<g>
	<path style="fill:#EAC25E;" d="M8.014,396.964h16v16h-16V396.964z"/>
	<path style="fill:#EAC25E;" d="M80.014,340.964h16v16h-16V340.964z"/>
	<path style="fill:#EAC25E;" d="M72.014,76.964h16v16h-16V76.964z"/>
	<path style="fill:#EAC25E;" d="M96.014,52.964h16v16h-16V52.964z"/>
	<path style="fill:#EAC25E;" d="M384.014,76.964h16v16h-16V76.964z"/>
	<path style="fill:#EAC25E;" d="M360.014,52.964h16v16h-16V52.964z"/>
	<path style="fill:#EAC25E;" d="M48.014,444.964h16v16h-16V444.964z"/>
	<path style="fill:#EAC25E;" d="M384.014,340.964h16v16h-16V340.964z"/>
	<path style="fill:#EAC25E;" d="M456.014,404.964h16v16h-16V404.964z"/>
	<path style="fill:#EAC25E;" d="M416.014,444.964h16v16h-16V444.964z"/>
</g>
<g>
</g>
<g>
</g>
<g>
</g>
<g>
</g>
<g>
</g>
<g>
</g>
<g>
</g>
<g>
</g>
<g>
</g>
<g>
</g>
<g>
</g>
<g>
</g>
<g>
</g>
<g>
</g>
<g>
</g>
</svg>
