<?xml version="1.0" encoding="iso-8859-1"?>
<!-- Generator: Adobe Illustrator 19.0.0, SVG Export Plug-In . SVG Version: 6.00 Build 0)  -->
<svg version="1.1" id="Layer_1" xmlns="http://www.w3.org/2000/svg" xmlns:xlink="http://www.w3.org/1999/xlink" x="0px" y="0px"
	 viewBox="0 0 511.999 511.999" style="enable-background:new 0 0 511.999 511.999;" xml:space="preserve">
<path style="fill:#B3404A;" d="M256,420.145c-4.236,0-8.472-0.907-12.417-2.722c-30.642-14.098-101.915-52.207-101.915-101.474
	v-143.11c0-5.707,2.617-10.899,7.181-14.244c4.771-3.497,10.93-4.426,16.899-2.544c5.565,1.754,10.36,2.503,16.031,2.503
	c18.387,0,35.076-9.403,44.646-25.152c4.557-7.504,12.814-12.167,21.549-12.167h16.053c8.735,0,16.991,4.663,21.551,12.17
	c9.567,15.746,26.256,25.15,44.643,25.15c7.155,0,12.958,5.802,12.958,12.958s-5.802,12.958-12.958,12.958
	c-27.4,0-52.279-13.945-66.614-37.319h-15.212c-14.338,23.377-39.214,37.319-66.614,37.319c-4.963,0-9.571-0.403-14.196-1.267
	v132.748c0,28.035,46.776,59.502,86.832,77.93c1.007,0.463,2.164,0.463,3.171,0c40.056-18.428,86.832-49.895,86.832-77.93v-18.483
	c0-7.155,5.802-12.958,12.958-12.958s12.958,5.802,12.958,12.958v18.483c0,49.266-71.272,87.376-101.915,101.474
	C264.472,419.237,260.235,420.145,256,420.145z"/>
<path style="fill:#F4B2B0;" d="M256,134.191h-8.027c-4.293,0-8.246,2.268-10.475,5.937c-11.427,18.811-32.1,31.382-55.718,31.382
	c-7.242,0-13.381-1.039-19.928-3.103c-4.031-1.27-7.227,1.087-7.227,4.43v143.111c0,42.843,71.434,79.148,94.374,89.702
	c2.224,1.024,4.613,1.534,7.001,1.534V134.191z"/>
<g>
	<path style="fill:#B3404A;" d="M256,420.143c-4.319,0-8.498-0.916-12.421-2.724c-30.64-14.095-101.911-52.204-101.911-101.472
		v-143.11c0-9.946,7.913-17.737,18.015-17.737c2.027,0,4.067,0.319,6.065,0.949c5.565,1.754,10.36,2.503,16.031,2.503
		c18.387,0,35.076-9.402,44.643-25.151c4.561-7.506,12.819-12.169,21.551-12.169H256c7.155,0,12.958,5.802,12.958,12.958v272.995
		C268.958,414.342,263.156,420.143,256,420.143z M167.583,183.201v132.748c0,25.413,38.434,53.645,75.459,72.43V154.831
		c-14.738,18.714-37.011,29.637-61.263,29.637C176.817,184.469,172.209,184.066,167.583,183.201z"/>
	<path style="fill:#B3404A;" d="M309.748,304.518c-2.178,0-4.384-0.549-6.41-1.707c-6.216-3.547-8.378-11.462-4.831-17.677
		L320,247.479c2.252-3.948,5.169-7.382,8.669-10.205c13.039-10.524,42.938-26.979,54.093-31.342l65.71-25.707
		c5.631-2.203,10.112-6.703,12.292-12.342l26.189-67.739c2.581-6.673,10.077-9.992,16.759-7.413
		c6.673,2.58,9.993,10.084,7.413,16.759l-26.189,67.739c-4.793,12.397-14.642,22.286-27.022,27.131l-65.711,25.707
		c-8.087,3.163-36.221,18.466-47.259,27.376c-0.974,0.785-1.793,1.754-2.437,2.884l-21.494,37.656
		C318.624,302.169,314.249,304.518,309.748,304.518z"/>
	<path style="fill:#B3404A;" d="M393.286,226.128c-7.155,0-12.958-5.802-12.958-12.958v-47.192c0-7.155,5.802-12.958,12.958-12.958
		s12.958,5.802,12.958,12.958v47.192C406.244,220.325,400.442,226.128,393.286,226.128z"/>
	<path style="fill:#B3404A;" d="M462.538,243.238c-1.096,0-2.208-0.14-3.317-0.433l-63.542-16.779
		c-6.919-1.827-11.048-8.917-9.221-15.837c1.828-6.919,8.921-11.044,15.837-9.221l63.542,16.779
		c6.919,1.827,11.048,8.917,9.221,15.837C473.524,239.395,468.277,243.238,462.538,243.238z"/>
	<path style="fill:#B3404A;" d="M465.176,197.468c-5.559,0-10.698-3.605-12.394-9.201l-16.292-53.721
		c-2.078-6.848,1.791-14.084,8.639-16.161c6.847-2.082,14.084,1.789,16.161,8.639l16.292,53.721
		c2.078,6.848-1.791,14.084-8.639,16.161C467.689,197.286,466.422,197.468,465.176,197.468z"/>
	<path style="fill:#B3404A;" d="M202.252,304.518c-4.502,0-8.876-2.349-11.265-6.537l-21.493-37.655
		c-0.645-1.13-1.464-2.099-2.436-2.884c-11.041-8.911-39.174-24.214-47.261-27.377l-65.711-25.705
		c-12.38-4.844-22.228-14.733-27.022-27.131L0.875,109.489c-2.58-6.675,0.739-14.178,7.413-16.759
		c6.673-2.579,14.177,0.736,16.759,7.413l26.189,67.739c2.181,5.64,6.662,10.139,12.292,12.342l65.711,25.707
		c11.154,4.363,41.054,20.818,54.094,31.343c3.497,2.822,6.414,6.256,8.667,10.205l21.492,37.654
		c3.548,6.215,1.385,14.129-4.831,17.677C206.637,303.967,204.429,304.518,202.252,304.518z"/>
	<path style="fill:#B3404A;" d="M118.715,226.128c-7.155,0-12.958-5.802-12.958-12.958v-47.192c0-7.155,5.802-12.958,12.958-12.958
		s12.958,5.802,12.958,12.958v47.192C131.673,220.325,125.87,226.128,118.715,226.128z"/>
	<path style="fill:#B3404A;" d="M49.461,243.238c-5.739,0-10.986-3.843-12.52-9.653c-1.827-6.919,2.301-14.01,9.221-15.837
		l63.542-16.779c6.912-1.823,14.009,2.301,15.837,9.221c1.827,6.919-2.301,14.01-9.221,15.837l-63.542,16.779
		C51.67,243.098,50.557,243.238,49.461,243.238z"/>
	<path style="fill:#B3404A;" d="M46.824,197.468c-1.245,0-2.511-0.181-3.766-0.562c-6.848-2.077-10.717-9.313-8.639-16.161
		l16.292-53.721c2.078-6.848,9.308-10.721,16.161-8.639c6.848,2.077,10.717,9.313,8.639,16.161L59.22,188.267
		C57.522,193.862,52.383,197.468,46.824,197.468z"/>
</g>
<g>
</g>
<g>
</g>
<g>
</g>
<g>
</g>
<g>
</g>
<g>
</g>
<g>
</g>
<g>
</g>
<g>
</g>
<g>
</g>
<g>
</g>
<g>
</g>
<g>
</g>
<g>
</g>
<g>
</g>
</svg>
