<?xml version="1.0" encoding="iso-8859-1"?>
<!-- Generator: Adobe Illustrator 19.0.0, SVG Export Plug-In . SVG Version: 6.00 Build 0)  -->
<svg version="1.1" id="Capa_1" xmlns="http://www.w3.org/2000/svg" xmlns:xlink="http://www.w3.org/1999/xlink" x="0px" y="0px"
	 viewBox="0 0 512.001 512.001" style="enable-background:new 0 0 512.001 512.001;" xml:space="preserve">
<path style="fill:#E7E7F2;" d="M460.053,30.675c-1.141-1.63-2.882-2.739-4.841-3.084L299.389,0.116
	c-4.084-0.721-7.969,2.005-8.688,6.083l-56.528,320.584c-0.719,4.079,2.005,7.97,6.084,8.688l155.822,27.477
	c0.434,0.077,0.869,0.114,1.303,0.114c1.528,0,3.032-0.468,4.302-1.356c1.63-1.141,2.739-2.882,3.084-4.841L461.296,36.28
	C461.641,34.321,461.194,32.304,460.053,30.675z"/>
<path style="fill:#BCBCCE;" d="M460.053,30.675c-1.141-1.63-2.882-2.739-4.841-3.084l-31.164-5.495
	c0.707,0.496,1.334,1.108,1.838,1.829c1.141,1.629,1.588,3.646,1.242,5.604L370.6,350.114c-0.345,1.959-1.454,3.7-3.084,4.841
	c-1.27,0.889-2.773,1.356-4.302,1.356c-0.434,0-0.869-0.037-1.303-0.114l-124.662-21.982c0.873,0.615,1.886,1.058,3.007,1.255
	l155.822,27.477c0.434,0.077,0.869,0.114,1.303,0.114c1.528,0,3.032-0.468,4.302-1.356c1.63-1.141,2.739-2.882,3.084-4.841
	L461.296,36.28C461.641,34.321,461.194,32.304,460.053,30.675z"/>
<path style="fill:#50D399;" d="M455.213,27.591L299.389,0.116c-4.084-0.721-7.969,2.005-8.688,6.083l-8.273,46.916l170.569,30.226
	l8.298-47.061c0.346-1.959-0.102-3.976-1.242-5.605C458.913,29.045,457.172,27.936,455.213,27.591z"/>
<path style="fill:#32A873;" d="M460.053,30.675c-1.141-1.63-2.882-2.739-4.841-3.084l-31.164-5.495
	c0.707,0.496,1.334,1.108,1.838,1.829c1.141,1.629,1.588,3.646,1.242,5.604l-8.417,47.736l34.286,6.076l8.298-47.061
	C461.641,34.321,461.194,32.304,460.053,30.675z"/>
<path style="fill:#7EBFE7;" d="M454.82,190.451l-52.03,295.02c-0.64,3.59-3.75,6.2-7.39,6.2H166.63c-4.15,0-7.5-3.36-7.5-7.5v-136.3
	c0-4.14,3.35-7.5,7.5-7.5h41.86l9.66-54.78l8.46-48l10.3-58.45l8.46-47.99l9.68-54.88c0.72-4.08,4.61-6.8,8.69-6.08l56.04,9.88
	c1.22,0.21,2.37,0.72,3.34,1.49l128.95,101.69C454.24,184.961,455.29,187.731,454.82,190.451z"/>
<g>
	<path style="fill:#3E91D9;" d="M306.78,148.191l-6.31,35.82c-0.59,3.36-3.8,5.61-7.16,5.02l-56.4-9.89l8.46-47.99l56.39,9.88
		C305.13,141.621,307.37,144.831,306.78,148.191z"/>
	<path style="fill:#3E91D9;" d="M452.074,183.254l-25.208-19.878c0.087,0.723,0.079,1.462-0.051,2.2l-52.029,295.027
		c-0.632,3.584-3.746,6.197-7.386,6.197H159.127v17.371c0,4.143,3.358,7.5,7.5,7.5H395.4c3.64,0,6.754-2.613,7.386-6.197
		l52.029-295.027C455.295,187.727,454.242,184.964,452.074,183.254z"/>
	<path style="fill:#3E91D9;" d="M288,254.721l-6.31,35.82c-0.59,3.36-3.8,5.6-7.16,5.01l-56.38-9.96l8.46-48l56.38,9.98
		C286.35,248.161,288.6,251.371,288,254.721z"/>
</g>
<path style="fill:#7EBFE7;" d="M288.833,340.378H166.631c-4.142,0-7.5,3.357-7.5,7.5v136.294c0,4.143,3.358,7.5,7.5,7.5h122.202
	c41.712,0,75.647-33.935,75.647-75.646S330.545,340.378,288.833,340.378z"/>
<g>
	<path style="fill:#3E91D9;" d="M288.833,340.378h-32.667c41.712,0,75.647,33.935,75.647,75.647s-33.936,75.646-75.647,75.646
		h32.667c41.712,0,75.647-33.935,75.647-75.646S330.545,340.378,288.833,340.378z"/>
	<polygon style="fill:#3E91D9;" points="166.627,491.672 166.631,491.672 194.772,491.672 194.772,340.378 166.631,340.378 
		166.627,340.378 	"/>
</g>
<path style="fill:#E8C778;" d="M166.631,320.049H58.09c-4.142,0-7.5,3.357-7.5,7.5v176.952c0,4.143,3.358,7.5,7.5,7.5h108.541
	c4.142,0,7.5-3.357,7.5-7.5V327.549C174.131,323.407,170.773,320.049,166.631,320.049z"/>
<path style="fill:#D99A4A;" d="M166.631,320.049H137.39c3.098,0,5.61,3.357,5.61,7.5v176.952c0,4.143-2.512,7.5-5.61,7.5h29.241
	c4.142,0,7.5-3.357,7.5-7.5V327.549C174.131,323.407,170.773,320.049,166.631,320.049z"/>
<g>
</g>
<g>
</g>
<g>
</g>
<g>
</g>
<g>
</g>
<g>
</g>
<g>
</g>
<g>
</g>
<g>
</g>
<g>
</g>
<g>
</g>
<g>
</g>
<g>
</g>
<g>
</g>
<g>
</g>
</svg>
