<?xml version="1.0" encoding="iso-8859-1"?>
<!-- Generator: Adobe Illustrator 19.0.0, SVG Export Plug-In . SVG Version: 6.00 Build 0)  -->
<svg version="1.1" id="Capa_1" xmlns="http://www.w3.org/2000/svg" xmlns:xlink="http://www.w3.org/1999/xlink" x="0px" y="0px"
	 viewBox="0 0 512 512" style="enable-background:new 0 0 512 512;" xml:space="preserve">
<path style="fill:#8F4F0B;" d="M417.084,420.478c-1.325-3.865-4.132-7.046-7.803-8.842L149.206,284.345
	c-26.188-12.821-57.92-1.939-70.737,24.248s-1.939,57.92,24.248,70.737L362.793,506.62c2.18,1.067,4.488,1.572,6.762,1.572
	c5.698,0,11.177-3.174,13.85-8.638l32.942-67.306C418.145,428.578,418.409,424.345,417.084,420.478z"/>
<path style="fill:#BD6F06;" d="M433.53,308.592c-12.819-26.187-44.553-37.066-70.737-24.247L102.717,411.636
	c-3.67,1.797-6.478,4.978-7.803,8.842c-1.325,3.866-1.06,8.1,0.737,11.77l32.942,67.306c2.675,5.464,8.152,8.638,13.85,8.638
	c2.274,0,4.583-0.504,6.762-1.572L409.281,379.33C435.469,366.513,446.348,334.78,433.53,308.592z"/>
<path style="fill:#FFE475;" d="M173.454,435.884c-12.818-26.187-44.547-37.065-70.738-24.248
	c-26.186,12.819-37.063,44.551-24.247,70.737v0.001C87.638,501.102,106.478,512,126.047,512c7.793,0,15.702-1.729,23.16-5.379
	c12.686-6.209,22.194-16.986,26.775-30.346C180.56,462.914,179.664,448.57,173.454,435.884z"/>
<path style="fill:#FFB726;" d="M256,353.491c-65.247,0-118.328-53.083-118.328-118.329c0-26.517,17.434-71.817,53.299-138.492
	c25.688-47.756,51.742-89.079,52.002-89.492C245.796,2.71,250.713,0,256,0s10.203,2.71,13.027,7.178
	c0.26,0.412,26.314,41.736,52.003,89.491c35.865,66.674,53.299,111.975,53.299,138.492C374.328,300.408,321.246,353.491,256,353.491
	z"/>
<path style="fill:#FFE475;" d="M256,353.491c-33.749,0-61.208-27.458-61.208-61.208c0-8.453,2.564-24.458,24.739-65.68
	c11.573-21.512,22.964-39.581,23.442-40.34c2.824-4.469,7.74-7.178,13.027-7.178c5.287,0,10.203,2.71,13.027,7.178
	c0.479,0.758,11.871,18.827,23.442,40.34c22.175,41.223,24.739,57.228,24.739,65.68C317.208,326.033,289.749,353.491,256,353.491z"
	/>
<path style="fill:#592B03;" d="M409.282,411.636L256,336.614v117.739l106.793,52.268c2.18,1.067,4.488,1.572,6.762,1.572
	c5.698,0,11.177-3.174,13.85-8.638l32.942-67.306c1.797-3.67,2.062-7.903,0.737-11.77
	C415.759,416.613,412.953,413.433,409.282,411.636z"/>
<path style="fill:#8F4F0B;" d="M362.793,284.345L256,336.614v117.739l153.283-75.022c26.187-12.818,37.065-44.55,24.248-70.738
	C420.712,282.405,388.977,271.526,362.793,284.345z"/>
<path style="fill:#FC8B25;" d="M374.328,235.162c0-26.517-17.434-71.817-53.299-138.492c-25.688-47.756-51.743-89.079-52.003-89.492
	C266.202,2.71,261.286,0,256,0v353.491C321.246,353.491,374.328,300.408,374.328,235.162z"/>
<g>
	<path style="fill:#FFB726;" d="M317.208,292.283c0-8.453-2.564-24.458-24.739-65.68c-11.573-21.512-22.964-39.581-23.442-40.34
		c-2.824-4.469-7.74-7.178-13.027-7.178v174.406C289.749,353.491,317.208,326.033,317.208,292.283z"/>
	<path style="fill:#FFB726;" d="M409.282,411.636c-26.185-12.819-57.92-1.94-70.737,24.248c-6.21,12.686-7.106,27.029-2.527,40.391
		c4.58,13.36,14.089,24.138,26.775,30.346c7.46,3.652,15.365,5.379,23.16,5.379c19.568,0,38.411-10.899,47.577-29.626v-0.001
		C446.347,456.187,435.469,424.454,409.282,411.636z"/>
</g>
<g>
</g>
<g>
</g>
<g>
</g>
<g>
</g>
<g>
</g>
<g>
</g>
<g>
</g>
<g>
</g>
<g>
</g>
<g>
</g>
<g>
</g>
<g>
</g>
<g>
</g>
<g>
</g>
<g>
</g>
</svg>
