<?xml version="1.0" encoding="iso-8859-1"?>
<!-- Generator: Adobe Illustrator 19.0.0, SVG Export Plug-In . SVG Version: 6.00 Build 0)  -->
<svg version="1.1" id="Capa_1" xmlns="http://www.w3.org/2000/svg" xmlns:xlink="http://www.w3.org/1999/xlink" x="0px" y="0px"
	 viewBox="0 0 511.99 511.99" style="enable-background:new 0 0 511.99 511.99;" xml:space="preserve">
<path style="fill:#3C5A73;" d="M229.825,419.12c-3.746,0-7.3-2.218-8.825-5.894l-58.982-142.234
	c-2.02-4.872,0.291-10.459,5.163-12.479c4.87-2.02,10.459,0.291,12.479,5.162l58.982,142.234c2.02,4.872-0.291,10.459-5.163,12.48
	C232.284,418.885,231.044,419.12,229.825,419.12z"/>
<path style="fill:#E64B55;" d="M403.394,505.59c-52.677,0-95.533-42.855-95.533-95.532s42.855-95.533,95.533-95.533
	s95.533,42.855,95.533,95.533S456.071,505.59,403.394,505.59z M403.394,329.547c-44.394,0-80.511,36.117-80.511,80.511
	s36.117,80.51,80.511,80.51s80.511-36.117,80.511-80.51S447.787,329.547,403.394,329.547z"/>
<path style="fill:#50555A;" d="M403.394,322.036c48.613,0,88.021,39.408,88.021,88.021s-39.408,88.021-88.021,88.021
	s-88.021-39.408-88.021-88.021S354.781,322.036,403.394,322.036 M403.394,308.125c-56.205,0-101.933,45.726-101.933,101.932
	S347.187,511.99,403.394,511.99s101.933-45.726,101.933-101.933C505.326,353.852,459.6,308.125,403.394,308.125L403.394,308.125z"/>
<path style="fill:#373C41;" d="M403.394,308.125c-0.151,0-0.301,0.005-0.453,0.006v13.911c0.151-0.001,0.301-0.006,0.453-0.006
	c48.613,0,88.021,39.408,88.021,88.021s-39.408,88.021-88.021,88.021c-0.151,0-0.301-0.005-0.453-0.006v13.911
	c0.151,0.001,0.301,0.006,0.453,0.006c56.205,0,101.933-45.726,101.933-101.933C505.326,353.853,459.6,308.125,403.394,308.125z"/>
<path style="fill:#B9B9BE;" d="M403.394,385.686c-13.438,0-24.372,10.934-24.372,24.372c0,13.438,10.934,24.372,24.372,24.372
	c13.438,0,24.372-10.934,24.372-24.372C427.765,396.619,416.833,385.686,403.394,385.686L403.394,385.686z"/>
<path style="fill:#E64B55;" d="M108.596,505.59c-52.676,0-95.533-42.855-95.533-95.532s42.855-95.533,95.533-95.533
	s95.533,42.855,95.533,95.533S161.273,505.59,108.596,505.59z M108.596,329.547c-44.394,0-80.511,36.117-80.511,80.511
	s36.117,80.51,80.511,80.51s80.511-36.117,80.511-80.51S152.99,329.547,108.596,329.547z"/>
<path style="fill:#50555A;" d="M108.596,322.036c48.613,0,88.021,39.408,88.021,88.021s-39.408,88.021-88.021,88.021
	s-88.021-39.408-88.021-88.021S59.984,322.036,108.596,322.036 M108.596,308.125c-56.205,0-101.933,45.726-101.933,101.932
	S52.39,511.99,108.596,511.99s101.933-45.726,101.933-101.933C210.529,353.852,164.802,308.125,108.596,308.125L108.596,308.125z"/>
<path style="fill:#373C41;" d="M108.596,308.125c-0.151,0-0.301,0.005-0.453,0.006v13.911c0.151-0.001,0.301-0.006,0.453-0.006
	c48.613,0,88.021,39.408,88.021,88.021s-39.408,88.021-88.021,88.021c-0.151,0-0.301-0.005-0.453-0.006v13.911
	c0.151,0.001,0.301,0.006,0.453,0.006c56.205,0,101.933-45.726,101.933-101.933C210.529,353.853,164.803,308.125,108.596,308.125z"
	/>
<path style="fill:#B9B9BE;" d="M108.596,385.686c-13.438,0-24.372,10.934-24.372,24.372c0,13.438,10.934,24.372,24.372,24.372
	s24.372-10.934,24.372-24.372C132.968,396.619,122.036,385.686,108.596,385.686L108.596,385.686z"/>
<path style="fill:#1C9585;" d="M234.792,419.505c-2.715,0-5.419-1.106-7.381-3.281c-3.676-4.075-3.353-10.358,0.721-14.034
	l110.123-99.351l-151.129,0.091l-66.114,96.702h114.203c5.488,0,9.936,4.448,9.936,9.936c0,5.488-4.448,9.936-9.936,9.936H102.182
	c-3.685,0-7.068-2.04-8.789-5.3s-1.494-7.203,0.585-10.246l79.698-116.572c1.851-2.707,4.917-4.326,8.197-4.328l182.241-0.109
	c0.002,0,0.004,0,0.006,0c4.111,0,7.798,2.532,9.273,6.368c1.477,3.839,0.437,8.191-2.618,10.947l-129.33,116.681
	C239.546,418.659,237.165,419.505,234.792,419.505z"/>
<path style="fill:#3C5A73;" d="M403.388,419.508c-4.15,0-8.02-2.62-9.416-6.771L331.296,226.5
	c-2.165-6.431,2.627-13.106,9.417-13.106h38.309c5.488,0,9.936,4.448,9.936,9.936s-4.449,9.936-9.936,9.936h-24.481l58.264,173.132
	c1.75,5.201-1.047,10.837-6.248,12.587C405.507,419.339,404.438,419.508,403.388,419.508z"/>
<path style="fill:#373C41;" d="M388.959,223.331c0-5.488-4.449-9.936-9.936-9.936h-38.309c-6.786,0-11.585,6.67-9.417,13.106
	l2.277,6.768h45.449C384.509,233.267,388.959,228.819,388.959,223.331z"/>
<circle style="fill:#FFB69E;" cx="261.91" cy="42.391" r="42.391"/>
<path style="fill:#823214;" d="M214.172,275.743h-75.348c-7.911,0-14.325-6.413-14.325-14.324s6.413-14.324,14.325-14.324h75.348
	c7.911,0,14.325,6.413,14.325,14.324S222.083,275.743,214.172,275.743z"/>
<path style="fill:#373C41;" d="M214.176,429.023c-4.738,0-9.22-2.84-11.087-7.507c-2.449-6.121,0.529-13.068,6.65-15.516
	l53.819-21.528c6.122-2.451,13.069,0.53,15.517,6.65c2.449,6.121-0.529,13.068-6.65,15.516l-53.82,21.528
	C217.151,428.748,215.651,429.023,214.176,429.023z"/>
<path style="fill:#5F6E9B;" d="M282.875,285.886c3.751-10.199-1.385-21.52-11.53-25.413l-46.758-17.949l38.268-101.226
	c5.641-14.774-0.342-30.781-13.363-35.752l-42.045-16.054c-13.022-4.972-28.15,2.974-33.791,17.747l-40.748,106.608
	c-6.648,17.392,2.05,36.881,19.434,43.547l86.466,33.162l-29.47,80.112c-3.789,10.301,1.489,21.722,11.79,25.512
	c2.263,0.832,4.581,1.228,6.859,1.228c8.092,0,15.696-4.98,18.653-13.018L282.875,285.886z"/>
<path style="fill:#64AFFF;" d="M131.27,232.182c-1.134-5.946-0.683-12.269,1.637-18.336l40.748-106.608
	c5.641-14.774,20.77-22.72,33.791-17.747l42.045,16.054c13.022,4.972,19.004,20.979,13.363,35.752l-38.268,101.226L131.27,232.182z"
	/>
<path style="fill:#FFB69E;" d="M334.66,235.304c-1.252,0.092-2.531,0.046-3.822-0.15L254.98,223.64
	c-5.641-0.856-10.479-4.478-12.887-9.651l-39.49-84.78c-3.973-8.53-0.279-18.665,8.251-22.638
	c8.528-3.974,18.665-0.279,22.637,8.251l35.632,76.501l66.827,10.143c9.303,1.412,15.7,10.098,14.288,19.401
	C349.024,228.877,342.413,234.734,334.66,235.304z"/>
<path style="fill:#78BEFF;" d="M221.778,170.375l30.961-14.23l-19.248-41.322c-3.973-8.53-14.11-12.224-22.637-8.251
	c-8.53,3.973-12.223,14.108-8.251,22.638L221.778,170.375z"/>
<g>
</g>
<g>
</g>
<g>
</g>
<g>
</g>
<g>
</g>
<g>
</g>
<g>
</g>
<g>
</g>
<g>
</g>
<g>
</g>
<g>
</g>
<g>
</g>
<g>
</g>
<g>
</g>
<g>
</g>
</svg>
