<?xml version="1.0" encoding="iso-8859-1"?>
<!-- Generator: Adobe Illustrator 19.0.0, SVG Export Plug-In . SVG Version: 6.00 Build 0)  -->
<svg version="1.1" id="Layer_1" xmlns="http://www.w3.org/2000/svg" xmlns:xlink="http://www.w3.org/1999/xlink" x="0px" y="0px"
	 viewBox="0 0 462.2 462.2" style="enable-background:new 0 0 462.2 462.2;" xml:space="preserve">
<g>
	<path style="fill:#008DB3;" d="M449.557,235.01c-6.85-16.07-21.91-28.1-40.51-30.23l-70.54-8.06l-37.63-61.16
		c-9.62-15.64-26.67-25.17-45.03-25.17h-121.5c-31.66,0-59.43,21.15-67.83,51.68l-0.95,3.45c-2.66,9.69-7.77,18.32-14.62,25.21
		c-6.85,6.9-15.46,12.05-25.12,14.78c-10.44,2.94-17.66,12.47-17.66,23.31v67.883l38.41-8.983c0.81-1.88,1.73-3.71,2.75-5.49
		c9.59-16.61,27.44-26.93,46.6-26.93s37,10.32,46.58,26.93c1.02,1.78,1.95,3.61,2.75,5.49h163.08c0.79-1.86,1.7-3.67,2.71-5.43
		c9.58-16.65,27.45-26.99,46.64-26.99c19.16,0,37,10.32,46.58,26.93c1.02,1.78,1.95,3.61,2.75,5.49h42.82l0.27,0.03l3.12-27.4
		c0.13-1.12,0.22-2.23,0.27-3.34C453.867,249.25,452.437,241.77,449.557,235.01z"/>
	<path style="fill:#CCCCCC;" d="M462.2,299.792L462.2,299.792c0,6.654-5.394,12.048-12.048,12.048h-38.795
		c0.05-0.92,0.08-1.85,0.08-2.78c0-7.37-1.51-14.65-4.42-21.34l43.142,0.024C456.81,287.747,462.2,293.14,462.2,299.792z"/>
	<path style="fill:#666666;" d="M400.437,309.06c0,0.93-0.03,1.86-0.09,2.78c-1.43,22.31-19.98,39.97-42.66,39.97
		c-22.69,0-41.24-17.66-42.67-39.97c-0.06-0.92-0.09-1.85-0.09-2.78c0-7.75,2.06-15.02,5.66-21.29
		c7.38-12.83,21.23-21.47,37.1-21.47c15.84,0,29.67,8.62,37.05,21.42C398.367,294,400.437,301.29,400.437,309.06z M375.217,309.06
		c0-9.67-7.86-17.54-17.53-17.54c-9.68,0-17.54,7.87-17.54,17.54s7.86,17.54,17.54,17.54
		C367.357,326.6,375.217,318.73,375.217,309.06z"/>
	<path style="fill:#E6E6E6;" d="M357.687,291.52c9.67,0,17.53,7.87,17.53,17.54s-7.86,17.54-17.53,17.54
		c-9.68,0-17.54-7.87-17.54-17.54C340.147,299.39,348.007,291.52,357.687,291.52z"/>
	<path style="fill:#CCCCCC;" d="M303.927,309.06c0,0.93,0.03,1.87,0.08,2.78h-154.41c0.05-0.93,0.08-1.86,0.08-2.78
		c0-7.37-1.51-14.65-4.42-21.34h163.08C305.437,294.43,303.927,301.7,303.927,309.06z"/>
	<path style="fill:#76CDCE;" d="M115.967,138.39v58.33h-33.47c0,0,3.9-15.83,6.37-24.79l0.95-3.45c0.5-1.83,1.11-3.6,1.82-5.32
		C96.257,151.94,105.097,143.12,115.967,138.39z"/>
	<path style="fill:#76CDCE;" d="M200.027,134.55v62.17h-69.06v-62.04c1.12-0.09,2.25-0.13,3.38-0.13L200.027,134.55L200.027,134.55z
		"/>
	<path style="fill:#76CDCE;" d="M310.137,196.72h-95.11v-62.17h40.82c9.89,0,19.27,5.24,24.45,13.67L310.137,196.72z"/>
	<path style="fill:#666666;" d="M138.587,311.84c-1.43,22.31-19.98,39.97-42.66,39.97c-22.69,0-41.24-17.66-42.67-39.97
		c-0.06-0.92-0.09-1.85-0.09-2.78c0-7.77,2.07-15.06,5.69-21.34c7.39-12.8,21.22-21.42,37.07-21.42c15.84,0,29.67,8.62,37.05,21.42
		c3.63,6.28,5.7,13.57,5.7,21.34C138.677,309.99,138.647,310.92,138.587,311.84z M113.467,309.06c0-9.67-7.87-17.54-17.54-17.54
		c-9.68,0-17.54,7.87-17.54,17.54s7.86,17.54,17.54,17.54C105.597,326.6,113.467,318.73,113.467,309.06z"/>
	<path style="fill:#E6E6E6;" d="M95.927,291.52c9.67,0,17.54,7.87,17.54,17.54s-7.87,17.54-17.54,17.54
		c-9.68,0-17.54-7.87-17.54-17.54C78.387,299.39,86.247,291.52,95.927,291.52z"/>
	<path style="fill:#CCCCCC;" d="M42.167,309.06c0,0.93,0.03,1.86,0.08,2.78H12.06C5.399,311.84,0,306.441,0,299.78l0,0
		c0-6.661,5.399-12.06,12.06-12.06h34.517C43.677,294.42,42.167,301.69,42.167,309.06z"/>
	<path style="fill:#CCCCCC;" d="M256.236,229.631h-15.76c-3.313,0-6-2.686-6-6s2.687-6,6-6h15.76c3.313,0,6,2.686,6,6
		S259.55,229.631,256.236,229.631z"/>
	<path style="fill:#CCCCCC;" d="M148.017,229.631h-15.76c-3.313,0-6-2.686-6-6s2.687-6,6-6h15.76c3.313,0,6,2.686,6,6
		S151.33,229.631,148.017,229.631z"/>
	<path style="fill:#FFFFFF;" d="M453.497,257.01h-12.05c-12.15,0-22-9.85-22-22l0,0h30.11
		C452.867,242.245,454.367,249.37,453.497,257.01z"/>
	<polygon style="fill:#96E0DE;" points="200.027,134.68 200.027,196.72 192.997,196.72 130.967,134.68 	"/>
	<path style="fill:#96E0DE;" d="M310.137,196.72h-32.94l-62.17-62.17h40.82c9.89,0,19.27,5.24,24.45,13.67L310.137,196.72z"/>
	<path style="fill:#96E0DE;" d="M115.967,138.39v49.1l-24.33-24.33C96.257,151.94,105.097,143.12,115.967,138.39z"/>
</g>
<g>
</g>
<g>
</g>
<g>
</g>
<g>
</g>
<g>
</g>
<g>
</g>
<g>
</g>
<g>
</g>
<g>
</g>
<g>
</g>
<g>
</g>
<g>
</g>
<g>
</g>
<g>
</g>
<g>
</g>
</svg>
